<svg width="48" height="48" viewBox="0 0 48 48" fill="none" xmlns="http://www.w3.org/2000/svg">
<rect width="48" height="48" rx="24" fill="#95B541"/>
<path d="M18.3764 31.7996H14.8722V18.9082H18.3764V31.7996ZM16.6243 16.851C16.0125 16.851 15.484 16.6499 15.0391 16.2476C14.6126 15.827 14.3994 15.3242 14.3994 14.739C14.3994 14.1539 14.6126 13.651 15.0391 13.2305C15.484 12.8099 16.0125 12.5996 16.6243 12.5996C17.2176 12.5996 17.7275 12.8099 18.1539 13.2305C18.5989 13.651 18.8214 14.1539 18.8214 14.739C18.8214 15.3242 18.5989 15.827 18.1539 16.2476C17.7275 16.6499 17.2176 16.851 16.6243 16.851Z" fill="white"/>
<path d="M21.3904 24.4762C21.3904 22.739 21.9281 21.331 23.0034 20.2522C24.0973 19.1733 25.5991 18.6339 27.5088 18.6339C29.4185 18.6339 30.911 19.1733 31.9864 20.2522C33.0617 21.331 33.5994 22.739 33.5994 24.4762V31.7996H30.0952V24.7505C30.0952 23.7813 29.8727 23.0316 29.4278 22.5013C29.0013 21.9528 28.3617 21.6785 27.5088 21.6785C26.6559 21.6785 26.007 21.9528 25.562 22.5013C25.1356 23.0316 24.9224 23.7813 24.9224 24.7505V31.7996H21.3904V24.4762Z" fill="white"/>
</svg>
